<svg width="7" height="15" viewBox="0 0 7 15" fill="none" xmlns="http://www.w3.org/2000/svg">
<path d="M1.42694 0.156494C1.56761 0.173496 1.70287 0.223983 1.82343 0.303955C1.94256 0.383035 2.04476 0.489022 2.12518 0.613525L6.22968 6.59888L6.28046 6.67798C6.39149 6.86777 6.45036 7.09115 6.45038 7.3186C6.45038 7.57849 6.3734 7.83303 6.22968 8.03833L6.2287 8.03931L1.97968 14.0256C1.88143 14.1648 1.75447 14.2775 1.60858 14.3518C1.46578 14.4244 1.30917 14.4567 1.15155 14.4475C0.910764 14.448 0.681764 14.3498 0.503113 14.176C0.402713 14.0783 0.320345 13.9597 0.260925 13.8274C0.201563 13.6952 0.166046 13.5508 0.15448 13.4036C0.142959 13.2563 0.156013 13.1078 0.193542 12.9661C0.231052 12.8244 0.291913 12.6915 0.374207 12.5754L0.375183 12.5745L4.12128 7.31177L0.508972 2.04028V2.03931C0.428175 1.92213 0.368065 1.78878 0.332214 1.64673C0.296233 1.50412 0.284677 1.35467 0.298035 1.20728C0.311406 1.06001 0.350176 0.91684 0.411316 0.7854C0.472519 0.653884 0.555496 0.535837 0.65741 0.439697C0.758778 0.336303 0.878471 0.256702 1.00995 0.207275C1.1437 0.15705 1.28613 0.139511 1.42694 0.156494Z" fill="#2B2C34" stroke="#2B2C34" stroke-width="0.3"/>
</svg>
